<svg xmlns="http://www.w3.org/2000/svg" width="40" height="22.907" viewBox="0 0 13.027 7.458"><g fill-rule="evenodd" clip-rule="evenodd"><path fill="#5d805e" d="M0-.054h13.027v7.46H0Z"/><path fill="#fff22d" d="m6.514.85 5.371 2.826-5.371 2.831-5.372-2.83Z"/><path fill="#4a4999" d="M6.514 1.614c1.137 0 2.062.929 2.062 2.062a2.068 2.068 0 0 1-2.062 2.067A2.071 2.071 0 0 1 4.45 3.676a2.07 2.07 0 0 1 2.063-2.062z"/><path fill="#fff" d="M8.52 4.093c-1.364-.76-3.01-.895-4.065-.413 0-.152.018-.3.052-.451.986-.5 2.614-.308 4.06.447-.004.13-.013.278-.047.417zm-.834-1.155.052.104.113-.026-.083.083.057.1-.1-.057-.078.087.022-.117-.105-.044.113-.017zM5.189 4.662l.052.104.113-.026-.087.083.061.1-.104-.053-.074.083.022-.113-.104-.048.108-.013zm.625-.417.035.065.07-.017-.053.052.035.06-.06-.03-.048.052.013-.073-.07-.027.074-.013zm-.052.834.026.056.061-.013-.043.044.03.052-.056-.026-.04.043.01-.06-.057-.027.06-.004zm1.234-.113.026.056.06-.013-.047.044.034.052-.056-.03-.04.047.014-.06-.057-.027.057-.008zM7.269 5l.026.052.06-.013-.043.043.03.052-.051-.03-.044.048.013-.061-.056-.026.06-.009zm.248-.291.026.056.06-.013-.043.043.03.053-.052-.026-.043.043.013-.06-.057-.023.061-.008zm.343.021.026.057.06-.013-.047.039.034.056-.056-.03-.04.043.014-.056-.057-.026.057-.009zm.008-.121.018.039.043-.009-.03.03.021.035-.039-.017-.03.03.009-.043-.04-.018.044-.004zm.135-.152.035.07.078-.014-.057.052.04.07-.07-.04-.052.057.013-.074-.074-.034.078-.01zm.022-.23.034.07.074-.014-.056.052.043.065-.07-.034L8 4.423l.013-.078-.07-.03.078-.01zm.247-.074.035.07.078-.018-.056.056.039.065-.07-.039-.052.061.013-.078-.07-.03.074-.01zm-1.88.178.03.06.07-.012-.048.047.035.065-.065-.034-.048.056.013-.074-.065-.03.07-.009zm.156.147.03.061.066-.013-.048.048.035.056-.057-.03-.047.048.013-.065-.057-.026.06-.01zm.14-.212.038.082.087-.017-.06.06.043.079-.078-.044-.061.07.017-.091-.082-.035.087-.013zm-.366.3.035.064.07-.017-.052.052.034.065-.065-.034-.048.052.013-.07-.065-.03.07-.009z"/><path fill="#fff" d="m7.551 3.889.035.078.083-.022-.057.061.04.07-.075-.04-.052.061.013-.082-.074-.03.079-.014zm-.95.764.034.074.078-.017-.06.056.043.07-.07-.04-.056.066.013-.083-.07-.035.079-.008zm.507.456.04.074.078-.017-.057.056.04.074-.075-.04-.056.062.017-.079-.073-.039.078-.008zm.556-.313.035.074.078-.017-.06.056.043.07-.074-.035-.052.06.013-.082-.074-.034.083-.009zm.14.183.038.074.078-.018-.06.057.043.07-.074-.036-.052.061.013-.082-.074-.035.083-.009zm-3.01-1.147.026.053.06-.01-.043.044.026.048-.052-.026-.039.043.009-.06-.057-.022.061-.009zm1.845 1.546.026.052.057-.008-.043.039.03.052-.052-.026-.04.043.01-.06-.053-.022.057-.009z"/><path d="M4.737 3.225c.022-.01.035-.01.048-.005a.055.055 0 0 1 .03.04.055.055 0 0 1 .005.025.15.15 0 0 1-.009.096.07.07 0 0 1-.021.048.186.186 0 0 1-.079.065c-.034.013-.065.008-.082-.013-.013-.009-.017-.022-.022-.035-.004-.013-.008-.026-.008-.048.004-.013.004-.022.008-.035.005-.013.009-.026.018-.034a.152.152 0 0 1 .052-.065.182.182 0 0 1 .06-.04zm-.004.021a.104.104 0 0 0-.048.026.156.156 0 0 0-.034.052.144.144 0 0 0-.018.066.17.17 0 0 0 .009.056c.009.017.017.026.03.03a.06.06 0 0 0 .04 0 .102.102 0 0 0 .039-.026.288.288 0 0 0 .026-.052.174.174 0 0 0 .013-.065c0-.026 0-.043-.005-.06-.004-.018-.008-.027-.017-.031-.009-.004-.022 0-.035.004zm.143-.06c.035-.01.074-.022.113-.031a.088.088 0 0 1 .048 0c.004 0 .013.004.017.013.005.013.005.022.005.035-.005.013-.009.026-.018.039a.074.074 0 0 1-.026.026.08.08 0 0 1-.043.022.068.068 0 0 1 .026.034.217.217 0 0 1 .03.035c.005.009.01.013.01.013.003.004.003.004.008.004.004.005.013.005.017.005 0 0 0-.005.005-.005 0 .01 0 .01-.005.018-.017 0-.03.004-.048.009a.634.634 0 0 1-.039-.057.193.193 0 0 1-.034-.048c-.013 0-.022.005-.03.005v.043c0 .013-.005.026-.005.04 0 .008.004.012.004.017 0 .004.005.004.005.008.004 0 .008 0 .017-.004h.004v.017c-.03.005-.056.013-.082.022v-.017h.004c.009 0 .013-.005.013-.005s.004-.004.004-.008c0 0 .005-.005.005-.01V3.39c0-.03 0-.056.004-.086a.53.53 0 0 1 .009-.083c.004-.009.004-.013 0-.017v-.005H4.88c-.005.005-.009.005-.009.005 0-.005 0-.013.004-.018zm.053.004c-.005.017-.01.03-.01.048-.003.017-.003.034-.008.052l.048-.013a.104.104 0 0 0 .03-.013.095.095 0 0 0 .022-.018c.009-.013.013-.021.013-.034v-.027l-.013-.013h-.026a.407.407 0 0 1-.056.018zm.173-.044c0-.004 0-.008.005-.013.026-.008.052-.013.073-.017.04-.004.061-.004.074-.004a.064.064 0 0 1 .044.039.082.082 0 0 1 .008.034.134.134 0 0 1 .005.044c-.005.017-.009.039-.018.056-.008.018-.017.035-.026.048-.013.009-.021.017-.039.022-.008.008-.026.013-.039.013a.8.8 0 0 1-.108.022v-.014c.004-.004.004-.004.008-.004h.005c.004 0 .004 0 .008-.004.005-.005.005-.005.005-.009.004-.004.004-.009.004-.017 0-.03 0-.057.004-.087 0-.026.005-.057.009-.087.004-.009.004-.013.004-.017 0-.005-.004-.005-.008-.005h-.018zm.035.213c.017-.004.03-.009.048-.009.004-.004.013-.004.021-.008.013-.005.018-.005.022-.009a.052.052 0 0 0 .022-.022.13.13 0 0 0 .017-.034c.005-.018.005-.03.009-.048 0-.018 0-.03-.004-.044a.08.08 0 0 0-.01-.03.034.034 0 0 0-.016-.017c-.01-.005-.018-.009-.026-.009-.005 0-.018.004-.03.004-.014.005-.023.005-.031.009a.87.87 0 0 0-.018.104c-.004.04-.004.078-.004.113zm.221-.265c.061-.008.118-.013.178-.017 0 .013 0 .022.005.035v.03c0 .004-.009.004-.013.009 0-.013-.005-.022-.005-.026-.004-.005-.008-.013-.013-.013a.033.033 0 0 0-.017-.01h-.03c-.018 0-.035 0-.052.005-.005.013-.005.03-.01.048 0 .013 0 .03-.003.043h.026a.033.033 0 0 0 .021-.008c.005-.005.009-.009.013-.018 0-.004.005-.008.005-.017v-.004c.004-.005.013-.005.017-.005a.254.254 0 0 0-.009.057c0 .017-.004.039-.004.056h-.013v-.026c-.004-.004-.004-.008-.004-.013-.005-.004-.009-.004-.009-.004-.004-.004-.009-.004-.017 0h-.026c0 .017-.005.03-.005.043v.057c0 .004 0 .004.005.004h.008c.013 0 .022 0 .035-.004.017 0 .03-.005.043-.009.01-.009.018-.013.026-.026a.397.397 0 0 1 .022-.035c.005 0 .009 0 .009.005l-.013.039c-.004.013-.009.026-.013.043-.061.004-.122.009-.183.017v-.017h.01c.008 0 .012 0 .012-.004.005 0 .005-.005.005-.009 0 0 0-.009.004-.017 0-.026 0-.057.004-.087 0-.03.005-.06.013-.087v-.017l-.004-.005h-.017v-.013zm.23-.021c.022 0 .044 0 .07-.005l.013.1c.004.035.013.07.022.1.013-.03.026-.065.039-.1.017-.035.035-.065.048-.1h.07c-.005.005-.005.013-.005.018h-.022c0 .004-.004.004-.004.008-.005.005-.005.009-.009.018 0 .026-.004.052-.009.082-.004.026-.004.052-.008.083v.017c0 .004.004.004.004.009h.022c-.005.004-.005.013-.005.017h-.082c.004-.004.004-.009.004-.017h.018c.004 0 .004-.005.004-.005l.004-.004c0-.004.005-.009.005-.013 0-.03 0-.06.004-.091l.013-.096c-.017.04-.035.074-.048.113-.013.04-.03.078-.043.113h-.018l-.026-.109c-.008-.039-.017-.073-.017-.108a.513.513 0 0 0-.017.087c0 .03-.005.06-.005.091v.017c0 .005.005.005.005.009h.021c0 .004 0 .009-.004.017-.022 0-.048 0-.074.005V3.31h.009c.004 0 .013 0 .013-.004.004 0 .004-.004.009-.009v-.017c.004-.03.004-.056.008-.083 0-.03.005-.056.013-.082v-.017c0-.005 0-.005-.004-.01h-.022c0-.003 0-.008.005-.016zm.491.004.174.013c0 .013.004.022.004.035 0 .008.005.021.005.03-.005.004-.009.004-.013.004-.005-.008-.005-.017-.009-.021-.004-.009-.009-.013-.013-.018-.004-.004-.009-.008-.013-.008-.004-.005-.017-.005-.03-.005-.018-.004-.035-.004-.053-.008-.004.017-.004.03-.008.047 0 .013-.005.026-.005.044.01 0 .018 0 .026.004.01 0 .018-.004.022-.004.004-.005.009-.009.009-.013.004-.005.004-.013.009-.022v-.004h.013a.218.218 0 0 1-.01.052c0 .022-.003.039-.003.056-.005 0-.01-.004-.014-.004v-.009c.005-.004 0-.013 0-.017 0-.004 0-.009-.004-.009 0-.004-.004-.008-.009-.008-.004 0-.008-.005-.017-.005h-.026c0 .013 0 .026-.004.04 0 .012-.005.025-.005.043v.013l.005.004h.013c.008 0 .017.004.03.004.017 0 .03 0 .044-.004.008-.004.017-.013.026-.022.008-.004.013-.017.021-.03.005 0 .009.004.013.004-.004.013-.008.026-.017.04a.154.154 0 0 1-.017.038c-.057-.004-.118-.013-.178-.013 0-.004.004-.008.004-.017h.004c.009.004.013 0 .013 0a.01.01 0 0 0 .009-.009s.004-.004.004-.013c0-.03.005-.056.009-.082 0-.03.004-.057.009-.087.004-.004.004-.013.004-.013l-.009-.009h-.017c.004-.004.004-.013.004-.017zm.421.043.079.013c.03 0 .047.005.052.013a.04.04 0 0 1 .026.026c.004.013.008.026.004.04 0 .017-.004.026-.013.034-.009.013-.017.018-.026.022-.013.004-.03.004-.052.004-.013-.004-.026-.004-.035-.008l-.013.065v.013c0 .004.005.008.005.008s.004.005.008.005h.009v.017l-.078-.013c0-.004 0-.009.004-.013h.017c.005 0 .005-.004.005-.004.004-.005.004-.009.004-.018l.013-.082c.004-.026.004-.052.009-.083v-.013c0-.004 0-.004-.005-.008l-.008-.005H6.5zm.048.026c0 .018-.004.035-.004.052a.156.156 0 0 0-.009.048c.009 0 .022.005.03.005h.04c.004-.005.013-.005.017-.013.004-.01.009-.018.009-.03.004-.01 0-.023-.005-.031a.024.024 0 0 0-.013-.022c-.008 0-.021 0-.034-.004-.013 0-.022-.005-.03-.005zm.14.005c.034.004.073.008.108.017a.122.122 0 0 1 .048.017c.008.005.013.013.017.022.004.013.009.026.004.035a.04.04 0 0 1-.013.03c-.004.013-.013.018-.026.022h-.043c.008.013.017.03.021.043.005.013.013.026.022.044.004.004.004.009.009.013l.009.009a.013.013 0 0 0 .008.004h.005c0 .004 0 .013-.005.017a.156.156 0 0 0-.048-.008.204.204 0 0 0-.026-.066c-.008-.021-.017-.043-.026-.06-.008-.005-.021-.005-.03-.005 0 .009-.004.022-.004.035 0 .013-.005.022-.005.035 0 .008-.004.013-.004.017.004.004.004.009.004.009.005.004.009.004.013.004h.009c-.004.005-.004.009-.004.013l-.079-.013v-.013h.01c.003.004.008.004.008.004.004 0 .004-.004.009-.004 0-.004 0-.004.004-.009v-.017l.013-.078.013-.078c0-.005.004-.009 0-.013 0-.005 0-.005-.004-.009 0 0-.005-.004-.01-.004h-.008zm.051.026c0 .017-.004.03-.004.043-.004.018-.009.03-.009.048.013 0 .03.004.044.009h.03a.024.024 0 0 0 .022-.013.024.024 0 0 0 .013-.022v-.026c-.005-.009-.009-.013-.013-.018-.009-.004-.018-.008-.026-.008l-.057-.013zm.283.034a.103.103 0 0 1 .047.027.156.156 0 0 1 .035.052c0 .008.004.017.004.03 0 .013 0 .022-.004.035a.13.13 0 0 1-.017.043c-.009.018-.013.03-.026.035a.083.083 0 0 1-.083.017.091.091 0 0 1-.074-.056.07.07 0 0 1-.013-.04c0-.017 0-.03.005-.047 0-.013 0-.022.004-.03.004-.009.009-.022.017-.03.013-.014.026-.027.044-.031a.098.098 0 0 1 .06-.005zm-.005.018a.058.058 0 0 0-.039.004.068.068 0 0 0-.035.026.216.216 0 0 0-.017.057.143.143 0 0 0 0 .06c.004.014.009.03.017.04.01.013.022.017.04.017.008.004.021.004.034 0 .013-.004.026-.017.035-.035.013-.013.017-.03.022-.052a.143.143 0 0 0 0-.06.084.084 0 0 0-.022-.04.066.066 0 0 0-.035-.017zm.3.06h.009c.004.014.004.027.004.04 0 .013.004.026.004.039h-.013a.232.232 0 0 0-.026-.057.068.068 0 0 0-.035-.026c-.021-.004-.043 0-.056.018a.078.078 0 0 0-.022.03c-.008.009-.008.022-.013.035a.124.124 0 0 0 0 .056c.005.018.009.035.022.044.009.013.022.021.035.021a.055.055 0 0 0 .026.005c.008-.005.017-.005.021-.009.005-.004.01-.009.01-.013.003 0 .008-.009.008-.017 0-.005 0-.005.004-.009v-.022l-.009-.008s-.008-.005-.021-.01c.004-.003.004-.008.004-.012.03.009.057.013.083.022v.013H7.33s-.004 0-.004.004c0 0-.005.004-.005.013a.127.127 0 0 0-.008.04c-.005.016-.01.03-.01.038h-.017v-.022c-.013.005-.021.01-.03.01-.017 0-.03 0-.043-.005-.026-.005-.048-.026-.061-.052-.009-.013-.018-.026-.018-.044 0-.017 0-.03.005-.048 0-.017.004-.034.013-.047a.101.101 0 0 1 .03-.03c.022-.022.048-.027.078-.018.005 0 .01.004.018.009.004.004.013.008.017.013.004 0 .009.004.013.013 0-.009.004-.009.009-.013zm.078.018c.035.013.07.022.104.03.022.01.035.013.048.022.009.009.013.018.022.026.004.013.004.026.004.04a.09.09 0 0 1-.017.025c-.005.009-.013.013-.026.018-.013 0-.026 0-.044-.005.009.013.013.03.022.044.004.013.013.03.017.048.005.008.005.008.005.013.004.004.004.008.008.008.005.005.009.009.013.009h.005c-.005.004-.005.009-.005.013l-.047-.013c-.01-.022-.018-.043-.022-.065-.009-.022-.018-.048-.026-.065-.009-.005-.018-.009-.026-.009 0 .013-.005.022-.009.035a.082.082 0 0 1-.009.034v.026c.005 0 .009.005.018.005 0 .004 0 .004.004.004 0 .005-.004.009-.004.013a.524.524 0 0 0-.078-.022c0-.008 0-.013.004-.017l.004.004h.013s.005 0 .005-.004c.004 0 .004 0 .004-.004.004 0 .004-.005.009-.018l.013-.073.013-.079v-.013c0-.004 0-.004-.005-.008-.004 0-.004-.005-.008-.005h-.01l.001-.017zm.052.035c-.004.013-.004.03-.004.043-.005.013-.005.03-.009.044a.554.554 0 0 0 .044.013c.013.004.021.004.026.004.013 0 .017 0 .026-.009a.033.033 0 0 0 .008-.021c0-.01 0-.018-.004-.026 0-.01 0-.013-.009-.018A.07.07 0 0 0 7.5 3.36c-.017-.009-.035-.013-.052-.017zm.165.03c.052.018.109.035.16.057.005.008.005.021.01.034 0 .009.004.018.004.03h-.013a.062.062 0 0 0-.009-.025.033.033 0 0 0-.009-.018c-.004-.008-.008-.013-.017-.013a.07.07 0 0 0-.026-.013c-.017-.004-.035-.013-.052-.017 0 .017 0 .026-.004.043 0 .013-.005.026-.005.044.009 0 .013.004.022.008.009 0 .017.005.022 0 .004 0 .008-.004.013-.008.004-.005.004-.013.004-.022h.013a.218.218 0 0 1-.009.052.217.217 0 0 1-.008.052c-.01-.004-.013-.004-.018-.008.005 0 .005-.005.005-.005 0-.008.004-.013 0-.017v-.013l-.01-.009c-.003-.004-.008-.004-.016-.009a.073.073 0 0 1-.022-.008c-.005.013-.009.026-.009.039l-.013.039v.017c0 .005.004.005.013.005a.08.08 0 0 0 .03.008c.018.009.03.009.04.009a.04.04 0 0 0 .03-.013.074.074 0 0 0 .026-.026l.013.013a.078.078 0 0 0-.022.03c-.008.009-.013.022-.021.03-.057-.017-.113-.038-.17-.056 0-.004.005-.008.005-.013.004 0 .004 0 .004.005h.013c.004 0 .004 0 .009-.005 0-.004.004-.008.004-.013a.577.577 0 0 0 .022-.082l.013-.078v-.013c-.005-.005-.005-.01-.009-.01 0-.003-.004-.003-.017-.008.004 0 0-.008.004-.013zm.348.117c.004.005.004.005.008.005.005.013.005.026.005.039.004.013.004.03.004.039h-.013l-.026-.06a.103.103 0 0 0-.04-.027c-.008-.004-.017-.004-.021-.004-.009 0-.013.004-.017.008-.005.005-.01.01-.01.018v.013c.005.008.01.013.014.017.004.009.013.013.022.022.013.009.026.017.034.026l.022.017c.004.009.009.013.013.022s.009.013.009.022c0 .008 0 .017-.005.026a.077.077 0 0 1-.03.034.144.144 0 0 1-.06 0 .07.07 0 0 1-.031-.017c-.009-.004-.013-.013-.022-.026-.004.009-.008.013-.013.017-.004 0-.004-.004-.008-.004 0-.013.004-.026.004-.039 0-.017.004-.03.004-.043h.013c0 .017.005.034.009.047a.078.078 0 0 0 .022.03.135.135 0 0 0 .026.018.06.06 0 0 0 .039 0c.013-.004.017-.013.021-.022a.028.028 0 0 0 0-.026c-.008-.008-.017-.021-.03-.03l-.035-.026c-.017-.013-.03-.026-.034-.04-.01-.017-.01-.025-.01-.043l.014-.026c.009-.004.013-.008.026-.013.013-.004.026 0 .039.005.009.004.022.008.03.017.01.004.013.013.018.022.004-.005.004-.013.009-.018zm.19.074c.005 0 .01.005.014.005 0 .013 0 .026.004.043v.04c-.004-.005-.009-.005-.013-.005a.152.152 0 0 0-.026-.061.063.063 0 0 0-.04-.026c-.008-.004-.012-.004-.02-.004a.033.033 0 0 0-.018.008c-.005 0-.005.009-.005.013v.018c.005.004.005.013.009.017.009.004.013.013.026.022a.24.24 0 0 0 .035.026l.017.017.018.017c0 .005.004.014.004.022 0 .009 0 .018-.004.026a.062.062 0 0 1-.035.04.064.064 0 0 1-.057 0c-.013-.005-.021-.014-.03-.018-.009-.009-.013-.022-.022-.03a.06.06 0 0 0-.013.017c-.004-.004-.008-.004-.008-.004 0-.013 0-.03.004-.044 0-.013.004-.026.004-.039.005 0 .009 0 .018.004 0 .013 0 .026.004.04.009.013.013.026.022.034.004.009.017.013.026.018a.033.033 0 0 0 .039 0c.013-.005.022-.013.022-.022.004-.009 0-.022 0-.03-.005-.005-.018-.013-.03-.027a.078.078 0 0 1-.031-.021c-.022-.013-.03-.03-.04-.044-.004-.013-.008-.026-.004-.039 0-.013.005-.021.013-.026.005-.008.013-.013.026-.017.01 0 .022 0 .035.004a.078.078 0 0 1 .03.022c.01.004.014.009.022.017 0-.004.005-.008.005-.013zm.166.065a.118.118 0 0 1 .043.035c.017.017.03.035.035.052 0 .013.004.026.004.035 0 .013 0 .022-.004.035a.16.16 0 0 1-.022.047c-.009.01-.022.022-.035.03a.083.083 0 0 1-.078 0 .102.102 0 0 1-.065-.073.154.154 0 0 1-.009-.043c0-.013.005-.03.009-.044a.09.09 0 0 0 .009-.026c.004-.009.013-.017.017-.026a.063.063 0 0 1 .04-.026.086.086 0 0 1 .056.004zm-.005.018a.06.06 0 0 0-.039 0c-.009 0-.017.008-.026.021a.122.122 0 0 0-.022.048c-.008.022-.008.04-.008.061 0 .017.008.03.013.043a.082.082 0 0 0 .03.026.042.042 0 0 0 .04.005.102.102 0 0 0 .064-.078.143.143 0 0 0 0-.061.055.055 0 0 0-.017-.04c-.009-.012-.017-.017-.035-.025z"/></g></svg>